<mxfile host="Electron" modified="2024-02-23T11:25:28.955Z" agent="Mozilla/5.0 (Macintosh; Intel Mac OS X 10_15_7) AppleWebKit/537.36 (KHTML, like Gecko) draw.io/22.1.11 Chrome/114.0.5735.289 Electron/25.9.8 Safari/537.36" etag="n1tNRw5enw7dDJSk4yeM" version="22.1.11" type="device">
  <diagram id="R2lEEEUBdFMjLlhIrx00" name="Page-1">
    <mxGraphModel dx="1138" dy="2076" grid="1" gridSize="10" guides="1" tooltips="1" connect="1" arrows="1" fold="1" page="1" pageScale="1" pageWidth="850" pageHeight="1100" math="0" shadow="0" extFonts="Permanent Marker^https://fonts.googleapis.com/css?family=Permanent+Marker">
      <root>
        <mxCell id="0" />
        <mxCell id="1" parent="0" />
        <mxCell id="h14wCm_1KT4jP6VJzOCP-1" value="Chambre" style="rounded=0;whiteSpace=wrap;html=1;" parent="1" vertex="1">
          <mxGeometry x="580" y="140" width="120" height="60" as="geometry" />
        </mxCell>
        <mxCell id="INERQs4rVfNk_3R-kdhY-2" style="edgeStyle=orthogonalEdgeStyle;rounded=0;orthogonalLoop=1;jettySize=auto;html=1;exitX=0.5;exitY=1;exitDx=0;exitDy=0;entryX=0.5;entryY=0;entryDx=0;entryDy=0;endArrow=none;endFill=0;" edge="1" parent="1" source="h14wCm_1KT4jP6VJzOCP-2" target="INERQs4rVfNk_3R-kdhY-1">
          <mxGeometry relative="1" as="geometry">
            <mxPoint x="380" y="340" as="targetPoint" />
          </mxGeometry>
        </mxCell>
        <mxCell id="INERQs4rVfNk_3R-kdhY-3" value="Propose" style="edgeLabel;html=1;align=center;verticalAlign=middle;resizable=0;points=[];" vertex="1" connectable="0" parent="INERQs4rVfNk_3R-kdhY-2">
          <mxGeometry x="0.0489" relative="1" as="geometry">
            <mxPoint as="offset" />
          </mxGeometry>
        </mxCell>
        <mxCell id="INERQs4rVfNk_3R-kdhY-4" value="0, n" style="edgeLabel;html=1;align=center;verticalAlign=middle;resizable=0;points=[];" vertex="1" connectable="0" parent="INERQs4rVfNk_3R-kdhY-2">
          <mxGeometry x="-0.8897" relative="1" as="geometry">
            <mxPoint x="10" as="offset" />
          </mxGeometry>
        </mxCell>
        <mxCell id="INERQs4rVfNk_3R-kdhY-5" value="0, n" style="edgeLabel;html=1;align=center;verticalAlign=middle;resizable=0;points=[];" vertex="1" connectable="0" parent="INERQs4rVfNk_3R-kdhY-2">
          <mxGeometry x="0.9042" relative="1" as="geometry">
            <mxPoint x="10" as="offset" />
          </mxGeometry>
        </mxCell>
        <mxCell id="INERQs4rVfNk_3R-kdhY-6" style="edgeStyle=orthogonalEdgeStyle;rounded=0;orthogonalLoop=1;jettySize=auto;html=1;exitX=1;exitY=0.5;exitDx=0;exitDy=0;entryX=0;entryY=0.5;entryDx=0;entryDy=0;endArrow=none;endFill=0;" edge="1" parent="1" source="h14wCm_1KT4jP6VJzOCP-2" target="h14wCm_1KT4jP6VJzOCP-1">
          <mxGeometry relative="1" as="geometry" />
        </mxCell>
        <mxCell id="INERQs4rVfNk_3R-kdhY-7" value="Possède" style="edgeLabel;html=1;align=center;verticalAlign=middle;resizable=0;points=[];" vertex="1" connectable="0" parent="INERQs4rVfNk_3R-kdhY-6">
          <mxGeometry x="-0.0062" relative="1" as="geometry">
            <mxPoint as="offset" />
          </mxGeometry>
        </mxCell>
        <mxCell id="INERQs4rVfNk_3R-kdhY-8" value="1, n" style="edgeLabel;html=1;align=center;verticalAlign=middle;resizable=0;points=[];" vertex="1" connectable="0" parent="INERQs4rVfNk_3R-kdhY-6">
          <mxGeometry x="-0.882" y="1" relative="1" as="geometry">
            <mxPoint x="2" y="-9" as="offset" />
          </mxGeometry>
        </mxCell>
        <mxCell id="INERQs4rVfNk_3R-kdhY-9" value="1, 1" style="edgeLabel;html=1;align=center;verticalAlign=middle;resizable=0;points=[];" vertex="1" connectable="0" parent="INERQs4rVfNk_3R-kdhY-6">
          <mxGeometry x="0.8634" relative="1" as="geometry">
            <mxPoint x="-2" y="-10" as="offset" />
          </mxGeometry>
        </mxCell>
        <mxCell id="INERQs4rVfNk_3R-kdhY-10" style="edgeStyle=orthogonalEdgeStyle;rounded=0;orthogonalLoop=1;jettySize=auto;html=1;exitX=0;exitY=0.5;exitDx=0;exitDy=0;entryX=1;entryY=0.5;entryDx=0;entryDy=0;endArrow=none;endFill=0;" edge="1" parent="1" source="h14wCm_1KT4jP6VJzOCP-2" target="h14wCm_1KT4jP6VJzOCP-3">
          <mxGeometry relative="1" as="geometry" />
        </mxCell>
        <mxCell id="INERQs4rVfNk_3R-kdhY-11" value="Travail" style="edgeLabel;html=1;align=center;verticalAlign=middle;resizable=0;points=[];" vertex="1" connectable="0" parent="INERQs4rVfNk_3R-kdhY-10">
          <mxGeometry x="-0.025" relative="1" as="geometry">
            <mxPoint as="offset" />
          </mxGeometry>
        </mxCell>
        <mxCell id="INERQs4rVfNk_3R-kdhY-12" value="1, 1" style="edgeLabel;html=1;align=center;verticalAlign=middle;resizable=0;points=[];" vertex="1" connectable="0" parent="INERQs4rVfNk_3R-kdhY-10">
          <mxGeometry x="0.825" relative="1" as="geometry">
            <mxPoint y="-10" as="offset" />
          </mxGeometry>
        </mxCell>
        <mxCell id="INERQs4rVfNk_3R-kdhY-13" value="0, n" style="edgeLabel;html=1;align=center;verticalAlign=middle;resizable=0;points=[];" vertex="1" connectable="0" parent="INERQs4rVfNk_3R-kdhY-10">
          <mxGeometry x="-0.8536" relative="1" as="geometry">
            <mxPoint y="-10" as="offset" />
          </mxGeometry>
        </mxCell>
        <mxCell id="h14wCm_1KT4jP6VJzOCP-2" value="Hôtel" style="rounded=0;whiteSpace=wrap;html=1;" parent="1" vertex="1">
          <mxGeometry x="320" y="140" width="120" height="60" as="geometry" />
        </mxCell>
        <mxCell id="h14wCm_1KT4jP6VJzOCP-3" value="Employé" style="rounded=0;whiteSpace=wrap;html=1;" parent="1" vertex="1">
          <mxGeometry x="60" y="140" width="120" height="60" as="geometry" />
        </mxCell>
        <mxCell id="INERQs4rVfNk_3R-kdhY-27" style="edgeStyle=orthogonalEdgeStyle;rounded=0;orthogonalLoop=1;jettySize=auto;html=1;exitX=1;exitY=0.5;exitDx=0;exitDy=0;entryX=0;entryY=0.5;entryDx=0;entryDy=0;endArrow=none;endFill=0;" edge="1" parent="1" source="h14wCm_1KT4jP6VJzOCP-4" target="INERQs4rVfNk_3R-kdhY-20">
          <mxGeometry relative="1" as="geometry" />
        </mxCell>
        <mxCell id="INERQs4rVfNk_3R-kdhY-28" value="Prend" style="edgeLabel;html=1;align=center;verticalAlign=middle;resizable=0;points=[];" vertex="1" connectable="0" parent="INERQs4rVfNk_3R-kdhY-27">
          <mxGeometry x="-0.0905" relative="1" as="geometry">
            <mxPoint x="7" as="offset" />
          </mxGeometry>
        </mxCell>
        <mxCell id="INERQs4rVfNk_3R-kdhY-29" value="0, n" style="edgeLabel;html=1;align=center;verticalAlign=middle;resizable=0;points=[];" vertex="1" connectable="0" parent="INERQs4rVfNk_3R-kdhY-27">
          <mxGeometry x="-0.8714" y="2" relative="1" as="geometry">
            <mxPoint y="-8" as="offset" />
          </mxGeometry>
        </mxCell>
        <mxCell id="INERQs4rVfNk_3R-kdhY-30" value="1, 1" style="edgeLabel;html=1;align=center;verticalAlign=middle;resizable=0;points=[];" vertex="1" connectable="0" parent="INERQs4rVfNk_3R-kdhY-27">
          <mxGeometry x="0.8619" y="1" relative="1" as="geometry">
            <mxPoint y="-9" as="offset" />
          </mxGeometry>
        </mxCell>
        <mxCell id="h14wCm_1KT4jP6VJzOCP-4" value="Client" style="rounded=0;whiteSpace=wrap;html=1;" parent="1" vertex="1">
          <mxGeometry x="320" y="-70" width="120" height="60" as="geometry" />
        </mxCell>
        <mxCell id="INERQs4rVfNk_3R-kdhY-1" value="Service" style="rounded=0;whiteSpace=wrap;html=1;" vertex="1" parent="1">
          <mxGeometry x="320" y="350" width="120" height="60" as="geometry" />
        </mxCell>
        <mxCell id="INERQs4rVfNk_3R-kdhY-21" style="edgeStyle=orthogonalEdgeStyle;rounded=0;orthogonalLoop=1;jettySize=auto;html=1;exitX=0.5;exitY=1;exitDx=0;exitDy=0;entryX=0.5;entryY=0;entryDx=0;entryDy=0;endArrow=none;endFill=0;" edge="1" parent="1" source="INERQs4rVfNk_3R-kdhY-20" target="h14wCm_1KT4jP6VJzOCP-1">
          <mxGeometry relative="1" as="geometry" />
        </mxCell>
        <mxCell id="INERQs4rVfNk_3R-kdhY-22" value="Attribut" style="edgeLabel;html=1;align=center;verticalAlign=middle;resizable=0;points=[];" vertex="1" connectable="0" parent="INERQs4rVfNk_3R-kdhY-21">
          <mxGeometry x="0.0089" relative="1" as="geometry">
            <mxPoint as="offset" />
          </mxGeometry>
        </mxCell>
        <mxCell id="INERQs4rVfNk_3R-kdhY-23" value="1, n" style="edgeLabel;html=1;align=center;verticalAlign=middle;resizable=0;points=[];" vertex="1" connectable="0" parent="INERQs4rVfNk_3R-kdhY-21">
          <mxGeometry x="-0.8978" relative="1" as="geometry">
            <mxPoint x="10" y="3" as="offset" />
          </mxGeometry>
        </mxCell>
        <mxCell id="INERQs4rVfNk_3R-kdhY-24" value="0, 1" style="edgeLabel;html=1;align=center;verticalAlign=middle;resizable=0;points=[];" vertex="1" connectable="0" parent="INERQs4rVfNk_3R-kdhY-21">
          <mxGeometry x="0.88" relative="1" as="geometry">
            <mxPoint x="10" as="offset" />
          </mxGeometry>
        </mxCell>
        <mxCell id="INERQs4rVfNk_3R-kdhY-20" value="Réservation" style="rounded=0;whiteSpace=wrap;html=1;" vertex="1" parent="1">
          <mxGeometry x="580" y="-70" width="120" height="60" as="geometry" />
        </mxCell>
        <mxCell id="INERQs4rVfNk_3R-kdhY-31" value="MCD" style="shape=umlFrame;whiteSpace=wrap;html=1;pointerEvents=0;" vertex="1" parent="1">
          <mxGeometry x="40" y="-110" width="720" height="550" as="geometry" />
        </mxCell>
      </root>
    </mxGraphModel>
  </diagram>
</mxfile>
